<?xml version="1.0" encoding="utf-8"?>
<svg xmlns="http://www.w3.org/2000/svg" viewBox="0 0 100 100">
  <rect style="fill: rgb(211, 52, 46);" width="100" height="100" rx="10" ry="10"/>
  <path style="stroke-width: 1; fill: rgb(246, 246, 246);" d="M 28.128 77.646 L 10.571 67.39 L 7 39.135 L 27.984 31.373 L 27.984 31.361 L 28 31.368 L 28.054 31.348 L 28.054 31.386 L 49.039 39.148 L 47.259 53.222 C 45.164 53.576 43.12 54.631 41.765 55.984 C 40.509 57.24 39.508 59.096 39.091 61.037 L 28.136 36.845 L 28.138 36.693 L 28.103 36.769 L 28.077 36.715 L 28.077 36.826 L 15.102 65.399 L 20.27 65.434 L 22.834 58.957 L 26.527 58.976 L 26.527 58.987 L 27.497 58.981 L 29.638 58.994 L 29.638 58.973 L 33.334 58.952 L 35.896 65.428 L 39.174 65.405 C 39.397 66.211 39.728 66.877 40.121 67.646 C 39.922 67.958 40.077 67.485 39.569 68.683 C 39.308 69.304 39.128 70.177 39.101 71.164 L 28.128 77.646 Z M 26.504 54.868 L 24.528 54.866 L 28.085 46.466 L 31.637 54.859 L 26.504 54.868 Z"/>
  <ellipse style="stroke-linecap: round; stroke-miterlimit: 5.09; stroke-width: 6px; fill: rgb(246, 246, 246);" cx="104.171" cy="97.011" rx="2.011" ry="3.24" transform="matrix(1, 0, -0.067466, 1, -18.828806, -43.388305)"/>
  <path d="M 89.034 25.391 C 89.034 27.815 87.068 29.783 84.643 29.783 C 84.622 29.783 84.601 29.783 84.579 29.782 C 84.746 30.652 85.159 32.974 85.293 35.099 C 85.463 37.78 85.76 42.049 85.76 42.049 C 85.76 42.049 87.615 41.873 89.35 41.802 C 91.085 41.733 93 42.541 93 42.541 C 93 42.541 91.857 44.562 90.805 46.076 C 89.755 47.589 88.815 49.917 88.815 49.917 L 88.806 49.917 C 88.726 51.809 88.75 54.452 89.271 56.654 C 90.157 60.789 89.078 67.487 86.35 70.851 C 81.921 75.762 77.386 76.608 74.997 77.221 C 73.053 77.695 70.241 77.781 67.573 77.393 C 64.529 76.931 62.791 76.436 61.81 76.181 C 60.01 76.821 53.805 79.22 49.608 78.993 C 47.449 78.878 45.494 78.175 44.168 77.169 C 42.817 76.144 41.796 74.549 41.329 72.959 C 40.488 70.095 42.119 68.287 42.637 67.802 C 41.577 66.473 40.947 64.787 40.947 62.955 C 40.947 58.652 44.433 55.163 48.738 55.163 C 48.768 55.163 48.799 55.163 48.83 55.163 L 49.917 52.099 L 54.519 54.079 L 53.7 56.948 C 54.637 57.72 55.387 58.707 55.879 59.834 L 58.261 59.698 L 58.793 64.255 L 56.4 64.375 C 55.731 68.003 52.557 70.746 48.738 70.746 C 47.099 70.746 45.581 70.242 44.326 69.38 C 44.027 70.276 43.855 71.281 44.105 72.145 C 44.458 73.345 44.964 74.141 45.92 74.865 C 46.899 75.608 48.019 76.011 49.765 76.105 C 53.377 76.3 61.23 73.314 61.23 73.314 L 61.668 73.144 L 62.128 73.272 C 62.128 73.272 65.129 74.109 68 74.53 C 70.415 74.904 72.654 74.847 74.283 74.416 C 76.817 73.773 80.611 73.39 84.149 68.973 C 86.548 66.327 87.314 60.891 86.448 57.292 C 85.912 54.816 85.873 51.903 85.945 49.821 C 85.7 49.563 84.986 48.961 82.927 47.735 C 79.925 45.947 75.795 44.806 71.547 44.856 C 67.297 44.908 66.636 46.401 66.636 46.401 L 64.292 32.589 C 64.151 32.6 64.005 32.608 63.859 32.608 C 61.433 32.608 59.467 30.642 59.467 28.217 C 59.467 25.793 61.433 23.825 63.859 23.825 C 66.283 23.825 68.25 25.793 68.25 28.217 C 68.25 29.294 67.863 30.281 67.218 31.044 C 68.081 32.005 69.383 33.455 70.4 34.635 C 72.077 36.573 73.736 38.442 73.736 38.442 C 73.736 38.442 75.852 35.812 77.548 33.164 C 78.762 31.27 80.623 29.431 81.583 28.54 C 80.763 27.742 80.252 26.626 80.252 25.391 C 80.252 22.967 82.217 21 84.643 21 C 87.068 21 89.034 22.967 89.034 25.391 Z M 64.291 65.065 C 64.744 65.125 64.291 65.065 64.291 65.065 Z M 72.35 66.319 C 76.196 65.348 77.463 61.736 77.463 61.736 C 77.726 61.105 78.453 60.805 79.084 61.071 C 79.718 61.334 80.016 62.06 79.753 62.692 C 79.753 62.692 77.635 67.043 72.996 68.712 C 68.456 69.673 64.893 67.469 64.893 67.469 C 64.437 67.409 64.893 67.469 64.893 67.469 C 64.226 67.638 63.554 67.234 63.387 66.569 C 63.223 65.905 63.624 65.23 64.291 65.065 C 64.291 65.065 68.719 67.402 72.35 66.319 Z M 48.665 58.314 C 46.135 58.314 44.084 60.367 44.084 62.897 C 44.084 65.426 46.135 67.476 48.665 67.476 C 51.194 67.476 53.247 65.426 53.247 62.897 C 53.247 60.367 51.194 58.314 48.665 58.314 Z" style="fill: rgb(255, 141, 53); paint-order: stroke; stroke-width: 10px;"/>
  <path style="fill: none; stroke-width: 7px;" d="M 44.175 67.265 C 44.175 67.265 41.9 69.764 42.718 72.552 C 43.534 75.341 45.781 77.34 49.685 77.55 C 53.592 77.76 61.744 74.666 61.744 74.666 C 61.744 74.666 64.828 75.521 67.786 75.961 C 70.327 76.343 72.856 76.273 74.641 75.818 C 77.103 75.191 81.266 74.575 85.249 69.911 C 87.815 66.906 88.734 60.841 87.86 56.974 C 86.915 52.805 87.557 47.245 87.557 47.245"/>
  <path style="fill: none; stroke-linecap: round; stroke-miterlimit: 5.09; stroke-width: 6px;" d="M 64.42 66.066 C 64.42 66.066 68.438 68.328 72.525 67.307 C 76.775 65.993 78.437 62.012 78.437 62.012"/>
  <ellipse style="stroke-linecap: round; stroke-miterlimit: 5.09; stroke-width: 6; fill: rgb(246, 246, 246);" cx="104.171" cy="97.011" rx="2.011" ry="3.24" transform="matrix(1, 0, -0.067466, 1, -27.357629, -44.243327)"/>
</svg>